<svg width="30" height="30" viewBox="0 0 30 30" fill="none" xmlns="http://www.w3.org/2000/svg">
<rect width="30" height="30" rx="2" fill="white" fill-opacity="0.3"/>
<g clip-path="url(#clip0_209_1441)">
<path d="M15.0005 17.078C16.1597 17.078 17.0995 16.1382 17.0995 14.9789C17.0995 13.8197 16.1597 12.8799 15.0005 12.8799C13.8412 12.8799 12.9014 13.8197 12.9014 14.9789C12.9014 16.1382 13.8412 17.078 15.0005 17.078Z" fill="#00D8FF"/>
<path fill-rule="evenodd" clip-rule="evenodd" d="M15.1547 10.5546C18.7336 10.5789 22.6383 10.84 25.3186 13.2302C25.3973 13.3005 25.4733 13.3736 25.5473 13.4491C26.1797 14.0936 26.5102 15.1342 25.9997 15.9906C24.9525 17.7489 22.6106 18.5158 20.3433 18.9878C16.9523 19.6938 13.4067 19.6994 10.0172 19.0778C8.06672 18.7197 6.07219 18.0921 4.6861 16.7791C4.14657 16.2681 3.68532 15.596 3.7575 14.8478C3.87469 13.6375 5.03579 12.8608 6.01313 12.3349C8.72766 10.8742 12.0352 10.5475 15.1547 10.5546ZM14.895 11.1044C11.5088 11.1274 7.8436 11.3435 5.22891 13.5086C5.1375 13.5841 5.04938 13.6633 4.96454 13.7463C4.90969 13.7997 4.85672 13.8555 4.80563 13.9127C4.34672 14.4283 4.18875 15.2566 4.62188 15.8758C5.05782 16.4988 5.71969 16.9483 6.40125 17.3149C8.95032 18.6855 11.9625 18.9288 14.8992 18.9391C17.8725 18.9499 20.9386 18.6789 23.565 17.321C24.6113 16.7796 25.7888 15.9846 25.747 14.9608C25.7086 14.0214 24.7927 13.4411 24.1069 13.0267C23.9213 12.9147 23.7305 12.8111 23.5369 12.7136C20.9297 11.4072 17.8744 11.0978 14.895 11.1044Z" fill="#00D8FF"/>
<path fill-rule="evenodd" clip-rule="evenodd" d="M19.7414 5.01713C21.0506 5.05041 21.7289 6.62447 21.8184 7.78697C21.8363 8.01807 21.8428 8.2501 21.84 8.48213C21.8372 8.73338 21.8236 8.98463 21.8016 9.23494C21.5255 12.3343 20.1103 15.286 18.4439 18.0118C16.8141 20.6781 14.8266 23.3368 12.1228 24.5724C11.2289 24.9812 10.1658 25.2334 9.37453 24.7773C8.28984 24.1524 8.17125 22.6909 8.19141 21.5823C8.19656 21.3099 8.21437 21.0376 8.2425 20.7662C8.65922 16.7537 10.6931 12.9526 13.2384 9.67791C14.7234 7.76728 16.4902 5.87213 18.6909 5.18588C19.0373 5.0776 19.3125 5.01197 19.7414 5.01713ZM19.6786 5.5665C18.1416 5.59088 16.7616 6.72994 15.5395 7.91354C12.3267 11.0246 9.95906 15.1623 9.00656 19.5015C8.93297 19.8376 8.87109 20.176 8.82562 20.5168C8.79047 20.7807 8.76469 21.046 8.75109 21.3123C8.74031 21.5242 8.73656 21.7365 8.74312 21.9488C8.74781 22.1148 8.75859 22.2807 8.77687 22.4457C8.79047 22.5718 8.80875 22.6974 8.83172 22.8221C8.84906 22.9145 8.86922 23.0063 8.89266 23.0978C8.91187 23.1718 8.93344 23.2454 8.95781 23.3185C9.14953 23.8965 9.64359 24.4487 10.3069 24.467C11.8542 24.5092 13.3111 23.3809 14.5706 22.1546C16.7817 20.0026 18.4294 17.2984 19.7166 14.4559C20.7553 12.1609 21.7055 9.66619 21.1748 7.1401C21.1547 7.04447 21.1312 6.94979 21.1045 6.85604C21.0825 6.77963 21.0577 6.70416 21.0305 6.62963C20.8242 6.0676 20.3391 5.5651 19.6786 5.5665Z" fill="#00D8FF"/>
<path fill-rule="evenodd" clip-rule="evenodd" d="M10.3636 5.03764C12.0342 5.06998 13.5347 6.20389 14.8669 7.47373C17.2978 9.79076 19.0908 12.7383 20.4511 15.8405C21.5049 18.2437 22.4742 20.9414 21.6127 23.4773C21.3413 24.2765 20.6545 25.0078 19.7391 25.0265C18.0605 25.0603 16.5047 23.8397 15.1547 22.5258C11.768 19.2286 9.25361 14.8758 8.39205 10.2595C8.33017 9.92951 8.28095 9.5967 8.2472 9.26248C8.21955 8.98967 8.2022 8.71545 8.19751 8.44123C8.19376 8.21998 8.19845 7.99873 8.21392 7.77842C8.22423 7.63123 8.23923 7.48498 8.25939 7.3392C8.27861 7.20233 8.30298 7.06592 8.33345 6.93092C8.35361 6.84139 8.37611 6.7528 8.40189 6.66467C8.65455 5.80076 9.31173 5.03108 10.3636 5.03764ZM10.3003 5.58748C9.32205 5.60905 8.87439 6.76264 8.78439 7.57217C8.76611 7.73811 8.75486 7.90545 8.7497 8.0728C8.74314 8.28655 8.74595 8.50076 8.75673 8.71451C8.91048 11.8078 10.2933 14.7984 11.962 17.5369C13.5333 20.115 15.4308 22.6828 18.0408 24.0028C18.7945 24.3839 19.7105 24.6834 20.3616 24.3234C21.1781 23.8715 21.2785 22.7948 21.322 21.9923C21.3338 21.7739 21.3352 21.5545 21.3281 21.3356C21.3197 21.0609 21.2981 20.7867 21.2658 20.5139C20.9649 17.9653 19.8361 15.5536 18.5395 13.2745C16.9261 10.4395 14.9494 7.61389 12.1519 6.1378C11.5725 5.83217 10.9453 5.58233 10.3003 5.58748Z" fill="#00D8FF"/>
</g>
<defs>
<clipPath id="clip0_209_1441">
<rect width="30" height="30" fill="white"/>
</clipPath>
</defs>
</svg>
